<svg xmlns="http://www.w3.org/2000/svg" xmlns:xlink="http://www.w3.org/1999/xlink" width="500" zoomAndPan="magnify" viewBox="0 0 375 374.999991" height="500" preserveAspectRatio="xMidYMid meet" version="1.0"><defs><g/><clipPath id="f80b066144"><path d="M 26.664062 172.523438 L 348.335938 172.523438 L 348.335938 202.476562 L 26.664062 202.476562 Z M 26.664062 172.523438 " clip-rule="nonzero"/></clipPath></defs><rect x="-37.5" width="450" fill="#ffffff" y="-37.499999" height="449.999989" fill-opacity="1"/><rect x="-37.5" width="450" fill="#231f20" y="-37.499999" height="449.999989" fill-opacity="1"/><g fill="#fbfaf9" fill-opacity="1"><g transform="translate(59.850696, 227.260989)"><g><path d="M 44.964844 -89 C 63.058594 -76.496094 61.992188 -50.285156 57.070312 -39.511719 L 54.277344 -31.527344 L 53.746094 -31.527344 L 32.59375 -82.082031 L 39.246094 -89 L 39.246094 -89.796875 L 0.929688 -89.796875 L 0.929688 -89 L 41.242188 1.996094 L 42.703125 1.996094 L 81.816406 -89 L 81.816406 -89.796875 L 44.964844 -89.796875 Z M 44.964844 -89 "/></g></g></g><g fill="#fbfaf9" fill-opacity="1"><g transform="translate(139.0046, 227.260989)"><g><path d="M 37.515625 -89.796875 L 4.257812 -89.796875 L 4.257812 -89 L 11.441406 -82.082031 L 11.441406 -7.714844 L 4.257812 -0.796875 L 4.257812 0 L 37.78125 0 C 75.828125 0 86.738281 -25.808594 86.738281 -47.09375 C 86.738281 -75.695312 70.109375 -89.796875 37.515625 -89.796875 Z M 37.382812 -2.660156 L 37.382812 -87.402344 L 38.046875 -87.402344 C 54.941406 -87.402344 59.332031 -74.765625 59.332031 -44.964844 C 59.332031 -13.570312 54.675781 -2.660156 39.910156 -2.660156 Z M 37.382812 -2.660156 "/></g></g></g><g fill="#fbfaf9" fill-opacity="1"><g transform="translate(225.076177, 227.260989)"><g><path d="M 37.515625 -89.796875 L 4.257812 -89.796875 L 4.257812 -89 L 11.441406 -82.082031 L 11.441406 -7.714844 L 4.257812 -0.796875 L 4.257812 0 L 37.78125 0 C 75.828125 0 86.738281 -25.808594 86.738281 -47.09375 C 86.738281 -75.695312 70.109375 -89.796875 37.515625 -89.796875 Z M 37.382812 -2.660156 L 37.382812 -87.402344 L 38.046875 -87.402344 C 54.941406 -87.402344 59.332031 -74.765625 59.332031 -44.964844 C 59.332031 -13.570312 54.675781 -2.660156 39.910156 -2.660156 Z M 37.382812 -2.660156 "/></g></g></g><g clip-path="url(#f80b066144)"><path fill="#231f20" d="M 26.664062 172.523438 L 348.613281 172.523438 L 348.613281 202.3125 L 26.664062 202.3125 Z M 26.664062 172.523438 " fill-opacity="1" fill-rule="nonzero"/></g><g fill="#fbfaf9" fill-opacity="1"><g transform="translate(67.074718, 188.966485)"><g><path d="M 0.480469 0 L 1.761719 0 L 1.761719 -5.40625 L 1.78125 -5.40625 L 4.734375 0 L 6.066406 0 L 9 -5.40625 L 9.019531 -5.40625 L 9.019531 0 L 10.300781 0 L 10.300781 -6.792969 L 8.433594 -6.792969 L 5.394531 -1.199219 L 5.386719 -1.199219 L 2.328125 -6.792969 L 0.480469 -6.792969 Z M 0.480469 0 "/></g></g></g><g fill="#fbfaf9" fill-opacity="1"><g transform="translate(85.518731, 188.966485)"><g><path d="M 3.375 0 L 4.707031 0 L 4.707031 -2.464844 L 8.039062 -6.792969 L 6.515625 -6.792969 L 4.042969 -3.480469 L 4.035156 -3.480469 L 1.523438 -6.792969 L -0.0078125 -6.792969 L 3.375 -2.464844 Z M 3.375 0 "/></g></g></g><g fill="#fbfaf9" fill-opacity="1"><g transform="translate(101.223363, 188.966485)"><g/></g></g><g fill="#fbfaf9" fill-opacity="1"><g transform="translate(111.65996, 188.966485)"><g><path d="M 0.480469 0 L 1.8125 0 L 1.8125 -2.347656 L 5.40625 -2.347656 C 7.140625 -2.347656 8.109375 -3.164062 8.117188 -4.550781 C 8.117188 -5.96875 7.148438 -6.792969 5.414062 -6.792969 L 0.480469 -6.792969 Z M 1.8125 -3.269531 L 1.8125 -5.867188 L 5.078125 -5.867188 C 6.171875 -5.867188 6.785156 -5.386719 6.785156 -4.5625 C 6.785156 -3.746094 6.171875 -3.269531 5.078125 -3.269531 Z M 1.8125 -3.269531 "/></g></g></g><g fill="#fbfaf9" fill-opacity="1"><g transform="translate(127.594475, 188.966485)"><g><path d="M 0.480469 0 L 7.332031 0 L 7.332031 -0.96875 L 1.773438 -0.96875 L 1.773438 -3.046875 L 6.851562 -3.046875 L 6.851562 -3.9375 L 1.773438 -3.9375 L 1.773438 -5.816406 L 7.234375 -5.816406 L 7.234375 -6.792969 L 0.480469 -6.792969 Z M 0.480469 0 "/></g></g></g><g fill="#fbfaf9" fill-opacity="1"><g transform="translate(142.781885, 188.966485)"><g><path d="M 7.582031 0.191406 C 8.109375 0.191406 8.597656 -0.0664062 8.882812 -0.421875 L 8.480469 -1.054688 C 8.335938 -0.832031 8.128906 -0.679688 7.917969 -0.679688 C 7.65625 -0.679688 7.523438 -0.863281 7.410156 -1.09375 L 6.929688 -2.058594 C 6.765625 -2.425781 6.546875 -2.703125 6.21875 -2.875 L 6.21875 -2.882812 C 7.464844 -3.019531 8.234375 -3.746094 8.234375 -4.761719 C 8.234375 -6.019531 7.246094 -6.792969 5.65625 -6.792969 L 0.480469 -6.792969 L 0.480469 0 L 1.8125 0 L 1.8125 -2.636719 L 4.582031 -2.636719 C 5.058594 -2.636719 5.460938 -2.339844 5.691406 -1.859375 L 6.210938 -0.757812 C 6.46875 -0.25 6.863281 0.191406 7.582031 0.191406 Z M 1.8125 -3.554688 L 1.8125 -5.847656 L 5.375 -5.847656 C 6.304688 -5.847656 6.898438 -5.394531 6.898438 -4.6875 C 6.898438 -4.007812 6.304688 -3.554688 5.375 -3.554688 Z M 1.8125 -3.554688 "/></g></g></g><g fill="#fbfaf9" fill-opacity="1"><g transform="translate(159.329409, 188.966485)"><g><path d="M 4.378906 0.230469 C 6.496094 0.230469 7.917969 -0.652344 7.917969 -1.957031 C 7.917969 -3.046875 7.042969 -3.632812 5.023438 -3.910156 L 3.429688 -4.128906 C 2.367188 -4.273438 1.917969 -4.542969 1.917969 -5.003906 C 1.917969 -5.625 2.761719 -6.058594 3.9375 -6.058594 C 5.117188 -6.058594 6.199219 -5.578125 6.726562 -4.898438 L 7.351562 -5.671875 C 6.746094 -6.46875 5.433594 -7.023438 3.929688 -7.023438 C 1.984375 -7.023438 0.605469 -6.230469 0.605469 -4.917969 C 0.605469 -3.863281 1.359375 -3.324219 3.132812 -3.09375 L 4.742188 -2.847656 C 6.046875 -2.664062 6.601562 -2.347656 6.601562 -1.839844 C 6.601562 -1.21875 5.742188 -0.757812 4.445312 -0.757812 C 2.867188 -0.757812 1.410156 -1.429688 0.910156 -2.394531 L 0.191406 -1.628906 C 0.832031 -0.535156 2.492188 0.230469 4.378906 0.230469 Z M 4.378906 0.230469 "/></g></g></g><g fill="#fbfaf9" fill-opacity="1"><g transform="translate(175.101089, 188.966485)"><g><path d="M 5.089844 0.238281 C 7.90625 0.238281 9.824219 -1.234375 9.824219 -3.394531 C 9.824219 -5.539062 7.90625 -7.035156 5.089844 -7.035156 C 2.28125 -7.035156 0.363281 -5.539062 0.363281 -3.394531 C 0.363281 -1.234375 2.28125 0.238281 5.089844 0.238281 Z M 5.089844 -0.796875 C 3.085938 -0.796875 1.695312 -1.859375 1.695312 -3.394531 C 1.695312 -4.925781 3.085938 -5.988281 5.089844 -5.988281 C 7.09375 -5.988281 8.492188 -4.925781 8.492188 -3.394531 C 8.492188 -1.859375 7.09375 -0.796875 5.089844 -0.796875 Z M 5.089844 -0.796875 "/></g></g></g><g fill="#fbfaf9" fill-opacity="1"><g transform="translate(192.951254, 188.966485)"><g><path d="M 0.480469 0 L 1.761719 0 L 1.761719 -5.5 L 1.773438 -5.5 L 6.640625 0 L 8.308594 0 L 8.308594 -6.792969 L 7.015625 -6.792969 L 7.015625 -1.304688 L 7.003906 -1.304688 L 2.148438 -6.792969 L 0.480469 -6.792969 Z M 0.480469 0 "/></g></g></g><g fill="#fbfaf9" fill-opacity="1"><g transform="translate(209.402985, 188.966485)"><g><path d="M 0.0390625 0 L 1.429688 0 L 2.203125 -1.484375 L 6.460938 -1.484375 L 7.234375 0 L 8.636719 0 L 5.128906 -6.792969 L 3.574219 -6.792969 Z M 2.597656 -2.414062 L 4.332031 -5.828125 L 4.351562 -5.828125 L 6.074219 -2.414062 Z M 2.597656 -2.414062 "/></g></g></g><g fill="#fbfaf9" fill-opacity="1"><g transform="translate(225.739786, 188.966485)"><g><path d="M 0.480469 0 L 6.164062 0 L 6.164062 -1.054688 L 1.8125 -1.054688 L 1.8125 -6.792969 L 0.480469 -6.792969 Z M 0.480469 0 "/></g></g></g><g fill="#fbfaf9" fill-opacity="1"><g transform="translate(239.643709, 188.966485)"><g/></g></g><g fill="#fbfaf9" fill-opacity="1"><g transform="translate(250.080311, 188.966485)"><g><path d="M 0.480469 0 L 5.691406 0 C 7.199219 0 8.175781 -0.746094 8.175781 -1.886719 C 8.175781 -2.664062 7.667969 -3.296875 6.890625 -3.480469 L 6.890625 -3.488281 C 7.550781 -3.691406 7.984375 -4.253906 7.984375 -4.945312 C 7.984375 -6.066406 7.0625 -6.792969 5.65625 -6.792969 L 0.480469 -6.792969 Z M 1.8125 -3.910156 L 1.8125 -5.894531 L 5.328125 -5.894531 C 6.132812 -5.894531 6.652344 -5.511719 6.652344 -4.898438 C 6.652344 -4.292969 6.132812 -3.910156 5.339844 -3.910156 Z M 1.8125 -0.902344 L 1.8125 -3.078125 L 5.347656 -3.078125 C 6.25 -3.078125 6.84375 -2.636719 6.84375 -1.992188 C 6.84375 -1.332031 6.25 -0.902344 5.347656 -0.902344 Z M 1.8125 -0.902344 "/></g></g></g><g fill="#fbfaf9" fill-opacity="1"><g transform="translate(266.120185, 188.966485)"><g><path d="M 0.480469 0 L 6.164062 0 L 6.164062 -1.054688 L 1.8125 -1.054688 L 1.8125 -6.792969 L 0.480469 -6.792969 Z M 0.480469 0 "/></g></g></g><g fill="#fbfaf9" fill-opacity="1"><g transform="translate(280.024107, 188.966485)"><g><path d="M 5.089844 0.238281 C 7.90625 0.238281 9.824219 -1.234375 9.824219 -3.394531 C 9.824219 -5.539062 7.90625 -7.035156 5.089844 -7.035156 C 2.28125 -7.035156 0.363281 -5.539062 0.363281 -3.394531 C 0.363281 -1.234375 2.28125 0.238281 5.089844 0.238281 Z M 5.089844 -0.796875 C 3.085938 -0.796875 1.695312 -1.859375 1.695312 -3.394531 C 1.695312 -4.925781 3.085938 -5.988281 5.089844 -5.988281 C 7.09375 -5.988281 8.492188 -4.925781 8.492188 -3.394531 C 8.492188 -1.859375 7.09375 -0.796875 5.089844 -0.796875 Z M 5.089844 -0.796875 "/></g></g></g><g fill="#fbfaf9" fill-opacity="1"><g transform="translate(297.874273, 188.966485)"><g><path d="M 4.867188 0.21875 C 6.496094 0.21875 7.839844 -0.402344 8.53125 -1.390625 L 8.539062 -1.390625 L 8.636719 0 L 9.707031 0 L 9.707031 -3.796875 L 3.5 -3.796875 L 3.5 -2.941406 L 8.425781 -2.941406 C 8.394531 -1.707031 6.976562 -0.765625 5.183594 -0.765625 C 3.152344 -0.765625 1.695312 -1.851562 1.695312 -3.375 C 1.695312 -4.917969 3.039062 -6 4.925781 -5.988281 C 6.152344 -5.988281 7.304688 -5.445312 7.570312 -4.667969 L 8.808594 -4.945312 C 8.453125 -6.164062 6.792969 -7.003906 4.925781 -7.003906 C 2.253906 -7.003906 0.363281 -5.492188 0.363281 -3.34375 C 0.363281 -1.265625 2.234375 0.21875 4.867188 0.21875 Z M 4.867188 0.21875 "/></g></g></g></svg>