<?xml version="1.0" standalone="no"?>
<!DOCTYPE svg PUBLIC "-//W3C//DTD SVG 20010904//EN"
 "http://www.w3.org/TR/2001/REC-SVG-20010904/DTD/svg10.dtd">
<svg version="1.0" xmlns="http://www.w3.org/2000/svg"
 width="612.000000pt" height="612.000000pt" viewBox="0 0 612.000000 612.000000"
 preserveAspectRatio="xMidYMid meet">
<metadata>
Created by potrace 1.14, written by Peter Selinger 2001-2017
</metadata>
<g transform="translate(0.000000,612.000000) scale(0.100000,-0.100000)"
fill="#000000" stroke="none">
<path d="M0 3060 l0 -3060 3060 0 3060 0 0 3060 0 3060 -3060 0 -3060 0 0
-3060z m3330 1325 c590 -83 979 -398 1125 -909 100 -351 58 -802 -102 -1096
-212 -389 -604 -616 -1138 -660 -175 -14 -972 -14 -980 1 -4 6 -4 462 0 1015
l8 1004 67 0 67 0 6 -197 c4 -108 7 -529 7 -935 l0 -739 453 3 c421 4 459 6
560 27 276 57 484 167 653 344 178 187 267 398 296 699 26 283 -38 570 -178
795 -54 87 -195 233 -278 287 -128 84 -291 155 -431 186 -179 41 -214 43 -897
47 l-668 5 0 69 0 69 663 0 c530 0 683 -3 767 -15z m31 -327 c121 -33 198 -64
294 -119 384 -220 562 -687 444 -1169 -83 -340 -356 -611 -703 -700 -130 -33
-221 -40 -522 -40 l-294 0 0 74 0 74 328 5 c180 3 349 10 377 16 111 25 221
67 301 115 186 113 316 291 370 506 26 104 27 385 1 480 -80 296 -266 496
-547 589 -146 48 -198 51 -797 51 l-563 0 -2 -1112 -3 -1113 -72 -3 -73 -3 0
1184 c0 651 3 1187 7 1191 4 4 312 6 683 3 l675 -4 96 -25z m-181 -328 c269
-35 462 -194 542 -444 25 -79 35 -277 19 -372 -36 -207 -158 -374 -335 -459
-134 -64 -158 -68 -508 -72 l-318 -5 0 681 0 681 263 0 c144 0 296 -5 337 -10z"/>
<path d="M2730 3060 l0 -532 228 5 c168 3 242 9 286 21 228 64 356 246 356
506 0 251 -115 429 -323 496 -77 25 -97 27 -314 32 l-233 5 0 -533z"/>
</g>
</svg>
