<?xml version="1.0" standalone="no"?>
<!DOCTYPE svg PUBLIC "-//W3C//DTD SVG 20010904//EN"
 "http://www.w3.org/TR/2001/REC-SVG-20010904/DTD/svg10.dtd">
<svg version="1.0" xmlns="http://www.w3.org/2000/svg"
 width="700.000000pt" height="700.000000pt" viewBox="0 0 700.000000 700.000000"
 preserveAspectRatio="xMidYMid meet">
<metadata>
Created by potrace 1.14, written by Peter Selinger 2001-2017
</metadata>
<g transform="translate(0.000000,700.000000) scale(0.100000,-0.100000)"
fill="#000000" stroke="none">
<path d="M0 3500 l0 -3500 3500 0 3500 0 0 3500 0 3500 -3500 0 -3500 0 0
-3500z m1850 922 c0 -4 -27 -34 -60 -67 -33 -33 -60 -64 -60 -70 1 -5 47 -120
104 -255 l103 -245 -255 -3 c-141 -1 -259 1 -264 6 -6 6 -216 473 -273 610
l-14 32 360 0 c197 0 359 -4 359 -8z m786 -14 c-3 -13 -64 -158 -135 -323
l-130 -300 -64 -3 -64 -3 -6 93 c-7 108 -44 246 -90 333 -18 34 -66 95 -109
140 -43 44 -78 81 -78 82 0 2 153 3 341 3 l341 0 -6 -22z m976 -1 c253 -61
417 -173 507 -347 41 -78 81 -203 81 -252 l0 -28 -249 0 -249 0 -7 68 c-19
201 -52 332 -103 407 -56 80 -127 119 -244 132 l-58 6 0 -307 0 -306 -240 0
-240 0 0 252 0 253 -72 73 -73 73 440 -4 c360 -3 452 -7 507 -20z m1538 8
c350 -53 565 -227 640 -520 33 -128 58 -115 -233 -115 l-254 0 -6 98 c-14 230
-73 384 -173 453 -45 31 -137 59 -191 59 l-33 0 0 -305 0 -305 -240 0 -240 0
0 252 0 253 -72 72 -72 73 389 0 c289 0 415 -4 485 -15z m-3826 -866 l29 -51
29 51 c42 72 58 68 58 -14 0 -75 -17 -89 -22 -17 l-3 47 -25 -47 c-13 -27 -30
-48 -37 -48 -7 0 -23 20 -35 45 -12 25 -26 45 -30 45 -4 0 -8 -20 -8 -45 0
-25 -4 -45 -10 -45 -6 0 -10 28 -10 65 0 55 3 65 18 65 10 0 28 -20 46 -51z
m325 20 l23 -31 22 31 c11 17 27 31 34 31 18 0 14 -12 -18 -50 -17 -19 -30
-45 -30 -57 0 -13 -4 -23 -10 -23 -5 0 -10 10 -10 23 0 13 -14 42 -31 65 -20
28 -26 42 -17 42 8 0 25 -14 37 -31z m575 15 c19 -18 19 -20 6 -45 -8 -15 -22
-19 -60 -19 -47 0 -50 -2 -50 -26 0 -16 -5 -24 -12 -22 -8 3 -14 28 -16 66
l-3 62 60 0 c41 0 65 -5 75 -16z m296 6 c0 -5 -25 -10 -55 -10 -42 0 -55 -3
-55 -15 0 -11 12 -15 50 -15 64 0 66 -18 3 -22 -35 -2 -48 -7 -48 -18 0 -11
14 -16 53 -18 75 -4 65 -22 -13 -22 l-65 0 0 65 0 65 65 0 c37 0 65 -4 65 -10z
m294 -12 c8 -13 6 -21 -7 -36 -19 -21 -13 -52 10 -52 8 0 11 -4 8 -10 -11 -18
-35 -10 -47 15 -9 19 -19 25 -45 25 -29 0 -33 -3 -33 -26 0 -16 -5 -24 -12
-22 -8 3 -14 28 -16 67 l-3 62 67 -3 c50 -2 70 -7 78 -20z m287 6 c12 -15 11
-16 -11 -9 -26 8 -34 9 -62 7 -21 -2 -24 -21 -5 -26 6 -2 31 -9 55 -15 47 -13
58 -42 23 -61 -36 -19 -121 -3 -121 23 0 5 8 6 18 1 25 -11 86 -11 92 1 5 9
-18 19 -72 30 -21 4 -28 11 -28 29 0 28 11 34 61 35 23 1 42 -5 50 -15z m329
-4 c48 -48 8 -110 -72 -110 -49 0 -78 24 -78 65 0 43 29 65 87 65 30 0 49 -6
63 -20z m254 -27 l46 -48 0 48 c0 35 4 47 15 47 12 0 15 -13 15 -60 0 -83 -16
-86 -79 -18 l-50 53 -1 -52 c0 -29 -4 -53 -10 -53 -6 0 -10 28 -10 65 0 81 11
83 74 18z m354 -18 c23 -47 28 -65 18 -65 -8 0 -16 7 -20 15 -3 10 -19 15 -46
15 -27 0 -43 -5 -46 -15 -4 -8 -12 -15 -20 -15 -10 0 -5 18 18 65 19 39 39 65
48 65 9 0 29 -26 48 -65z m212 10 l0 -55 40 0 c22 0 40 -4 40 -10 0 -5 -25
-10 -55 -10 l-55 0 0 65 c0 51 3 65 15 65 12 0 15 -13 15 -55z m560 41 c8 -10
8 -20 2 -32 -7 -12 -6 -24 2 -36 17 -29 -16 -48 -81 -48 l-53 0 0 65 0 65 59
0 c39 0 63 -5 71 -14z m190 -41 l0 -55 40 0 c22 0 40 -4 40 -10 0 -5 -22 -10
-50 -10 l-50 0 0 65 c0 37 4 65 10 65 6 0 10 -25 10 -55z m390 35 c28 -28 25
-64 -6 -89 -76 -60 -196 18 -130 84 33 33 106 35 136 5z m316 6 c10 -8 16 -18
11 -22 -4 -4 -13 -2 -19 4 -28 28 -108 5 -108 -30 0 -43 82 -64 116 -30 17 16
15 17 -32 23 l-49 6 58 1 57 2 0 -35 c0 -19 -4 -35 -10 -35 -5 0 -10 5 -10 10
0 7 -6 7 -19 0 -33 -17 -89 -12 -111 10 -27 27 -26 75 2 94 28 20 88 21 114 2z
m-3610 -443 c-18 -43 -66 -156 -107 -250 -52 -121 -78 -172 -89 -170 -12 2
-228 462 -229 490 -1 4 102 7 229 7 l229 0 -33 -77z m1194 -129 l0 -207 79 5
c101 6 161 35 214 104 40 52 81 165 93 253 l7 51 224 0 224 0 -17 -32 c-33
-64 -93 -144 -151 -200 -100 -97 -214 -158 -376 -200 -76 -20 -112 -22 -502
-25 l-420 -4 73 73 72 73 0 158 0 157 240 0 240 0 0 -206z m1610 0 l0 -207 78
5 c179 10 263 113 307 371 l6 37 221 0 c250 0 233 9 175 -90 -18 -30 -66 -89
-107 -131 -83 -84 -169 -137 -294 -181 -141 -50 -224 -58 -633 -58 -205 0
-373 3 -373 7 0 4 32 36 70 72 l70 66 0 158 0 157 240 0 240 0 0 -206z"/>
<path d="M2120 3555 c0 -22 4 -25 33 -25 41 0 62 13 54 34 -4 11 -19 16 -47
16 -36 0 -40 -2 -40 -25z"/>
<path d="M2700 3560 c0 -17 7 -20 45 -20 38 0 45 3 45 20 0 17 -7 20 -45 20
-38 0 -45 -3 -45 -20z"/>
<path d="M3312 3568 c-31 -31 0 -78 52 -78 32 0 66 25 66 48 0 35 -89 59 -118
30z"/>
<path d="M3972 3545 c-11 -24 -10 -25 18 -25 28 0 29 1 18 25 -6 14 -14 25
-18 25 -4 0 -12 -11 -18 -25z"/>
<path d="M4700 3565 c0 -11 12 -15 45 -15 33 0 45 4 45 15 0 11 -12 15 -45 15
-33 0 -45 -4 -45 -15z"/>
<path d="M4700 3510 c0 -17 7 -20 45 -20 38 0 45 3 45 20 0 17 -7 20 -45 20
-38 0 -45 -3 -45 -20z"/>
<path d="M5272 3568 c-19 -19 -14 -56 8 -68 31 -16 81 -8 96 15 12 18 11 24
-2 43 -17 25 -81 31 -102 10z"/>
</g>
</svg>
