<?xml version="1.0" standalone="no"?>
<!DOCTYPE svg PUBLIC "-//W3C//DTD SVG 20010904//EN"
 "http://www.w3.org/TR/2001/REC-SVG-20010904/DTD/svg10.dtd">
<svg version="1.0" xmlns="http://www.w3.org/2000/svg"
 width="700.000000pt" height="700.000000pt" viewBox="0 0 700.000000 700.000000"
 preserveAspectRatio="xMidYMid meet">
<metadata>
Created by potrace 1.14, written by Peter Selinger 2001-2017
</metadata>
<g transform="translate(0.000000,700.000000) scale(0.100000,-0.100000)"
fill="#000000" stroke="none">
<path d="M0 3500 l0 -3500 3500 0 3500 0 0 3500 0 3500 -3500 0 -3500 0 0
-3500z m4409 854 c77 -20 205 -84 273 -139 32 -24 83 -75 114 -112 52 -64 145
-235 160 -295 l6 -28 -283 0 -284 0 -35 68 c-179 347 -412 489 -505 306 -17
-32 -20 -59 -20 -154 0 -63 4 -139 8 -167 l9 -53 -181 0 -181 0 25 66 c39 104
91 182 184 275 122 122 276 206 446 245 68 15 176 10 264 -12z m1689 -5 c152
-39 289 -124 363 -227 l41 -57 -69 -65 c-38 -36 -108 -100 -155 -142 l-85 -78
-74 0 -74 0 -29 73 c-44 109 -104 203 -176 277 -82 83 -144 115 -225 115 -75
0 -114 -25 -153 -98 -26 -50 -27 -57 -27 -210 l0 -157 -173 0 -173 0 6 23 c3
12 27 64 52 115 52 106 139 207 238 278 112 79 302 156 440 178 54 8 195 -5
273 -25z m-4618 -24 c224 -33 364 -114 408 -235 29 -79 21 -193 -19 -272 l-19
-38 -218 0 -217 0 0 153 c0 121 -4 163 -19 205 -37 109 -101 152 -238 160
l-88 5 0 -262 0 -261 -240 0 -240 0 0 208 0 208 -65 64 c-36 35 -65 68 -65 72
0 4 208 8 463 8 351 0 485 -4 557 -15z m1320 8 c0 -3 -29 -37 -65 -74 l-65
-67 0 -206 0 -206 -239 0 -238 0 -5 204 -5 204 -61 68 c-34 38 -62 72 -62 76
0 5 167 8 370 8 204 0 370 -3 370 -7z m-1023 -749 c25 -7 38 -33 24 -47 -6 -6
-6 -16 2 -27 19 -32 -7 -50 -74 -50 l-59 0 0 65 0 65 43 0 c23 0 52 -3 64 -6z
m230 -25 l27 -31 27 33 c36 44 50 30 15 -15 -14 -19 -26 -46 -26 -60 0 -16 -6
-26 -15 -26 -9 0 -15 9 -15 24 0 13 -13 40 -30 61 -33 42 -35 45 -19 45 6 0
22 -14 36 -31z m488 -19 c14 -27 27 -50 30 -50 3 0 16 23 30 50 14 28 30 50
35 50 14 0 13 -4 -20 -70 -17 -33 -37 -60 -45 -60 -8 0 -28 27 -45 60 -33 66
-34 70 -20 70 5 0 21 -22 35 -50z m409 29 c57 -45 19 -112 -65 -112 -51 0 -79
25 -79 69 0 26 6 37 28 48 38 21 85 19 116 -5z m516 -4 c26 -23 26 -59 0 -85
-15 -15 -33 -20 -75 -20 l-55 0 0 66 0 66 55 -4 c34 -3 62 -12 75 -23z m200
-40 c0 -37 -4 -65 -10 -65 -6 0 -10 28 -10 65 0 37 4 65 10 65 6 0 10 -28 10
-65z m237 13 l53 -52 0 52 c0 29 5 52 10 52 6 0 10 -28 10 -65 0 -81 -14 -84
-75 -17 l-44 47 -1 -47 c0 -36 -4 -48 -15 -48 -12 0 -15 13 -15 58 0 89 6 91
77 20z m261 19 c3 -25 7 -27 48 -27 43 0 44 1 44 31 0 20 4 29 13 27 7 -3 13
-28 15 -66 2 -51 0 -62 -13 -62 -10 0 -15 10 -15 30 0 29 -2 30 -45 30 -43 0
-45 -1 -45 -30 0 -20 -5 -30 -15 -30 -12 0 -15 14 -15 66 0 48 3 65 13 62 6
-3 13 -17 15 -31z m582 24 c33 -9 51 -46 39 -80 -14 -35 -26 -41 -91 -41 l-58
0 0 65 0 65 43 -1 c23 -1 53 -4 67 -8z m321 -52 c32 -64 32 -84 1 -56 -23 21
-81 22 -88 2 -4 -8 -13 -15 -21 -15 -17 0 -17 -1 22 73 17 31 36 57 42 57 7 0
27 -27 44 -61z m319 52 c0 -5 -12 -11 -27 -13 -26 -3 -28 -7 -31 -55 -4 -70
-22 -68 -22 2 0 54 0 55 -30 55 -16 0 -30 5 -30 10 0 6 30 10 70 10 39 0 70
-4 70 -9z m-4270 -617 l0 -257 88 5 c223 13 312 128 312 403 l0 105 261 0 261
0 -3 -73 c-10 -180 -166 -344 -399 -420 -157 -51 -228 -57 -697 -57 -238 0
-433 4 -433 8 0 5 29 37 65 71 l65 63 0 204 0 204 240 0 240 0 0 -256z m1600
0 l0 -257 78 5 c87 5 138 27 204 86 60 54 144 170 218 305 l65 117 73 0 72 0
0 -275 0 -275 -667 0 -667 0 72 73 72 72 0 203 0 202 240 0 240 0 0 -256z
m1430 174 c91 -165 215 -309 303 -348 153 -70 236 52 207 303 -6 55 -14 105
-17 113 -4 12 25 14 182 14 l186 0 -6 -22 c-42 -144 -177 -320 -318 -417 -119
-81 -315 -151 -424 -151 -66 0 -188 25 -257 52 -190 74 -360 256 -441 471
l-25 67 283 0 282 0 45 -82z m1611 14 c86 -105 234 -191 311 -180 22 3 23 7
26 126 l3 122 224 0 225 0 0 -295 c0 -231 -3 -295 -13 -295 -7 0 -89 77 -182
170 -93 94 -175 170 -182 170 -6 0 -49 -52 -95 -117 -46 -64 -103 -139 -128
-166 l-44 -50 -86 6 c-130 9 -284 65 -380 139 -56 43 -145 136 -182 192 -38
55 -97 173 -112 224 l-7 22 283 0 284 0 55 -68z"/>
<path d="M1690 3550 c0 -19 5 -21 43 -18 29 2 42 8 42 18 0 10 -13 16 -42 18
-38 3 -43 1 -43 -18z"/>
<path d="M1697 3513 c-20 -19 -5 -33 36 -33 50 0 62 7 46 27 -12 13 -70 18
-82 6z"/>
<path d="M2797 3552 c-35 -38 -10 -76 50 -76 23 0 40 7 49 19 18 25 18 31 -6
55 -25 25 -72 26 -93 2z"/>
<path d="M3310 3525 c0 -45 0 -45 34 -45 52 0 66 9 66 41 0 33 -23 49 -69 49
-30 0 -31 -1 -31 -45z"/>
<path d="M4620 3525 l0 -45 38 0 c44 0 62 14 62 47 0 25 -31 43 -76 43 -22 0
-24 -4 -24 -45z"/>
<path d="M4961 3542 c-17 -32 -13 -42 14 -42 28 0 32 17 11 45 -13 18 -14 18
-25 -3z"/>
</g>
</svg>
